<svg width="167" height="38" viewBox="0 0 167 38" fill="none" xmlns="http://www.w3.org/2000/svg">
<g clip-path="url(#clip0_44792_46)">
<mask id="mask0_44792_46" style="mask-type:luminance" maskUnits="userSpaceOnUse" x="0" y="0" width="37" height="38">
<path d="M36.328 0.797852H0V37.1259H36.328V0.797852Z" fill="white"/>
</mask>
<g mask="url(#mask0_44792_46)">
<path d="M27.0725 29.1929C26.3275 28.5291 25.4944 28.0866 24.458 28.1556C24.3722 28.1614 24.3234 28.1614 24.3627 28.286C24.514 28.7668 24.6349 29.2569 24.7142 29.7546C24.8148 30.3864 24.8683 31.0228 24.8404 31.6633C24.8347 31.7986 24.8782 31.8531 25.0078 31.8981C25.9408 32.2205 26.496 33.1876 26.2642 34.1467C26.0774 34.9199 25.5782 35.4393 24.7897 35.6077C23.9958 35.7773 23.3175 35.5285 22.8268 34.8773C22.3673 34.2679 22.3017 33.5816 22.6262 32.8961C22.9556 32.2003 23.5398 31.831 24.3104 31.7903C24.4778 31.7815 24.4889 31.719 24.49 31.5894C24.498 30.8532 24.4149 30.1269 24.2688 29.4063C24.0866 28.5081 23.775 27.6564 23.3595 26.8398C22.7669 25.6757 21.8895 24.7356 21.0087 23.7936C20.3262 23.0638 19.6258 22.3463 19.0381 21.5358C18.6005 20.9322 18.2656 20.2702 18.0849 19.5394C18.0807 19.5223 18.07 19.5066 18.0502 19.4643C17.8878 19.667 17.7974 19.89 17.704 20.109C17.4642 20.67 17.3391 21.2622 17.2544 21.862C17.1801 22.3871 17.1629 22.9179 17.1317 23.4472C17.0833 24.2753 17.1385 25.1064 17.0592 25.9333C16.973 26.8326 16.8327 27.7197 16.5212 28.5744C16.4156 28.864 16.3108 29.1529 16.1788 29.431C16.1494 29.4928 16.175 29.5031 16.212 29.5282C16.9349 30.0217 17.2651 30.7564 17.4706 31.5696C17.5435 31.8588 17.6064 32.1488 17.5915 32.4487C17.5828 32.6259 17.7089 32.5436 17.7684 32.534C18.3179 32.4487 18.8246 32.5611 19.2993 32.8408C20.163 33.3499 20.5832 34.3895 20.3506 35.349C20.1069 36.3534 19.2635 37.0806 18.2069 37.1229C17.3216 37.1586 16.6096 36.7727 16.1399 36.0083C15.4131 34.8251 15.9062 33.3026 17.1217 32.7303C17.1912 32.6976 17.2285 32.6625 17.2273 32.576C17.2121 31.6005 16.933 30.7278 16.2425 30.0122C16.2379 30.0076 16.2341 30.0027 16.2295 29.9985C16.0175 29.7935 16.0221 29.7961 15.8799 30.0586C15.351 31.0365 14.6879 31.9129 13.8776 32.6758C13.8056 32.7437 13.7728 32.781 13.83 32.8881C14.2956 33.7622 13.9997 34.8647 13.1634 35.4054C12.3364 35.9404 11.244 35.7655 10.6187 34.9981C9.96814 34.1997 10.0425 33.0596 10.7899 32.3626C11.5422 31.6611 12.7097 31.6694 13.4536 32.3885C13.5417 32.4739 13.5742 32.4605 13.6573 32.3812C14.517 31.5635 15.2003 30.6165 15.7201 29.5545C16.2135 28.5466 16.5311 27.4854 16.6474 26.3635C16.7526 25.3479 16.7504 24.3282 16.7949 23.3104C16.8236 22.6588 16.843 22.0068 16.9662 21.3646C17.1099 20.614 17.3315 19.8895 17.7627 19.2098C17.3391 19.2962 16.9703 19.4475 16.6138 19.6312C15.6648 20.1205 14.8778 20.8205 14.1103 21.5472C13.2939 22.3196 12.5072 23.1252 11.5838 23.7768C10.9187 24.2463 10.2069 24.6281 9.44727 24.9192C9.33368 24.9627 9.30621 25.0069 9.32262 25.1318C9.43931 26.011 9.14076 26.7815 8.67786 27.5059C8.528 27.7403 8.35259 27.954 8.14971 28.1678C8.43988 28.3789 8.69159 28.6217 8.88376 28.9311C9.38436 29.7363 9.31424 30.8539 8.69922 31.5868C7.73606 32.7345 5.99692 32.7109 5.08294 31.5292C4.69134 31.0232 4.56284 30.4493 4.63567 29.8056C4.79239 28.4235 6.26459 27.4495 7.68262 27.951C7.7513 27.9754 7.80501 27.9952 7.86833 27.9278C8.54551 27.2049 8.99241 26.3829 8.98746 25.3639C8.98746 25.3075 8.97641 25.2508 8.96913 25.1943C8.95965 25.1197 8.92682 25.1079 8.85251 25.1318C8.0914 25.3796 7.31086 25.5301 6.51282 25.5941C6.15173 25.623 5.79025 25.6235 5.42916 25.6154C5.32316 25.6132 5.28808 25.6341 5.24957 25.7428C4.98113 26.5041 4.38097 27.0102 3.53638 27.0833C2.79514 27.1473 2.02681 26.7293 1.68746 26.0571C1.22723 25.1452 1.50405 24.076 2.37227 23.5162C3.19779 22.9838 4.29898 23.18 4.92851 23.9647C5.20495 24.3091 5.32278 24.707 5.34222 25.1345C5.34718 25.2466 5.3693 25.2519 5.45966 25.2542C7.01877 25.2935 8.50094 24.9707 9.91629 24.3233C10.9755 23.8385 11.8888 23.1469 12.7326 22.3551C13.4662 21.6668 14.1785 20.9543 14.9529 20.3118C15.7521 19.6483 16.6169 19.097 17.6491 18.8599C17.6587 18.8576 17.6647 18.8428 17.6811 18.8237C17.2376 18.5436 16.7576 18.3607 16.2555 18.2308C15.3037 17.9847 14.3302 17.9397 13.3533 17.9119C12.328 17.8829 11.3005 17.8951 10.282 17.735C9.42784 17.6009 8.60389 17.3677 7.81456 17.0159C7.68338 16.9577 7.61862 16.9645 7.52974 17.0926C7.1961 17.572 6.70881 17.8531 6.17956 18.0632C5.70065 18.2533 5.2019 18.3703 4.68372 18.376C4.57237 18.3772 4.56284 18.4134 4.57772 18.5082C4.74663 19.574 4.21357 20.5702 3.24507 21.0042C2.29753 21.4291 1.1605 21.1669 0.506186 20.329C0.0318478 19.7215 -0.112284 19.0363 0.0955247 18.2643C0.522582 16.6791 2.54043 16.0153 3.8418 17.168C4.08202 17.3806 4.27077 17.6314 4.40308 17.9214C4.43397 17.9892 4.45723 18.0239 4.53387 18.0212C5.49894 17.9888 6.37783 17.7263 7.09734 17.0506C7.34823 16.8148 7.34328 16.806 7.05043 16.6501C6.06974 16.1285 5.20534 15.454 4.44006 14.6522C4.36724 14.5756 4.32377 14.5677 4.23836 14.613C3.38005 15.0676 2.28114 14.8321 1.70995 13.9289C0.96413 12.7492 1.66534 11.2562 2.97129 11.0058C3.87269 10.8332 4.67571 11.2322 5.08637 12.0488C5.44403 12.7602 5.33498 13.6192 4.74244 14.2387C4.65932 14.3256 4.66389 14.3523 4.74549 14.4369C6.23104 15.9772 8.02657 16.942 10.126 17.3433C10.6118 17.4363 11.1059 17.4652 11.599 17.5029C12.6418 17.583 13.6889 17.5449 14.731 17.6215C15.8261 17.7022 16.8868 17.9172 17.8443 18.4941C17.8592 18.5033 17.8801 18.5025 17.9172 18.5101C17.8653 18.2015 17.7532 17.9233 17.6285 17.6505C17.1732 16.6543 16.4724 15.8351 15.7315 15.0466C15.0448 14.3157 14.3256 13.6149 13.7 12.8284C13.0563 12.0194 12.545 11.135 12.1896 10.1629C12.1683 10.1042 12.1507 10.081 12.0844 10.0943C11.1967 10.2704 10.4288 9.94759 9.69212 9.50976C9.4641 9.37411 9.24639 9.21862 9.0626 9.02577C8.96837 8.92708 8.92833 8.97172 8.86851 9.05132C8.21839 9.91709 7.16368 10.2414 6.16927 9.84738C5.34871 9.52198 4.86064 8.90462 4.7249 8.02704C4.57352 7.0477 5.06578 6.11714 5.88291 5.68615C6.77058 5.2182 7.64526 5.2887 8.44716 5.90107C9.14646 6.43494 9.49803 7.41923 9.22503 8.27167C9.13767 8.54378 9.20978 8.69693 9.42138 8.86458C10.0555 9.36683 10.7487 9.72122 11.5669 9.77685C12.0398 9.80892 12.0562 9.76504 11.9128 9.32034C11.7305 8.75483 11.6276 8.17298 11.57 7.58004C11.5246 7.11362 11.4976 6.64834 11.5071 6.18039C11.5086 6.09579 11.4781 6.06607 11.3961 6.03901C10.8593 5.86258 10.4619 5.51963 10.2236 5.00557C9.686 3.84561 10.4032 2.47073 11.6802 2.28972C12.5606 2.16511 13.255 2.50388 13.6809 3.28316C14.2959 4.4092 13.6588 5.81914 12.3742 6.08817C12.2629 6.11142 12.1499 6.13924 12.0356 6.12247C11.9124 6.10456 11.8697 6.15448 11.8686 6.27413C11.8617 6.91394 11.9177 7.54727 12.0226 8.17868C12.129 8.82118 12.304 9.44307 12.5343 10.0509C12.945 11.1331 13.5345 12.1082 14.2975 12.9786C15.1477 13.9484 16.0781 14.845 16.9025 15.8385C17.4291 16.473 17.8565 17.1669 18.141 17.9431C18.2016 18.1081 18.2401 18.2811 18.2961 18.4754C18.4967 18.1893 18.6271 17.8875 18.74 17.5769C19.0496 16.726 19.14 15.837 19.2013 14.9415C19.2448 14.3085 19.214 13.6748 19.2379 13.0419C19.2818 11.8853 19.3771 10.7345 19.7333 9.62411C19.8519 9.25365 19.9777 8.88326 20.1543 8.53499C20.1954 8.45381 20.1843 8.41988 20.11 8.36961C19.5339 7.97937 19.2201 7.4017 19.0015 6.76647C18.8578 6.34882 18.7533 5.91784 18.7602 5.47047C18.7621 5.34471 18.7015 5.36377 18.618 5.37635C17.9301 5.48075 17.3006 5.32985 16.7728 4.87677C16.0949 4.29412 15.8082 3.55105 15.9897 2.6605C16.1921 1.66706 16.8171 1.07984 17.7887 0.84015C17.8169 0.833291 17.8546 0.842436 17.8607 0.797852C18.102 0.797852 18.343 0.797852 18.5845 0.797852C18.5963 0.810046 18.6069 0.831004 18.6202 0.832909C19.6071 0.983049 20.4231 1.7547 20.5508 2.90514C20.6446 3.75034 20.1931 4.73425 19.23 5.18429C19.1366 5.22811 19.1194 5.2807 19.1182 5.37215C19.1125 5.87249 19.2258 6.34997 19.4072 6.81029C19.5846 7.25919 19.8221 7.67299 20.2012 7.99009C20.3075 8.07923 20.3807 8.10251 20.4379 7.93823C20.4764 7.82738 20.5485 7.72752 20.6076 7.62387C21.1231 6.7196 21.7576 5.90869 22.5221 5.20106C22.5709 5.15571 22.5854 5.13361 22.5469 5.06463C22.1759 4.40692 22.2396 3.51332 22.7253 2.93258C23.2465 2.30954 23.9268 2.07023 24.7169 2.26876C25.5165 2.46958 26.0114 3.02022 26.1483 3.81741C26.2871 4.62602 25.9645 5.33442 25.258 5.78294C24.5144 6.25508 23.5695 6.15334 22.9106 5.54287C22.8283 5.46628 22.7784 5.43655 22.6884 5.54058C22.5396 5.71244 22.3639 5.8603 22.2129 6.03063C21.117 7.26681 20.3415 8.67139 19.9335 10.2806C19.7459 11.0203 19.6452 11.771 19.6243 12.5247C19.5941 13.602 19.564 14.6789 19.4907 15.7535C19.4355 16.5621 19.2574 17.3486 18.9207 18.0917C18.83 18.2918 18.7244 18.4846 18.6145 18.7029C18.6816 18.69 18.719 18.6854 18.7548 18.6759C19.4286 18.4941 20.028 18.1622 20.5958 17.7655C21.5379 17.1078 22.3364 16.2862 23.1597 15.4952C24.2693 14.4293 25.4848 13.53 26.9383 12.9858C27.0348 12.9496 27.0489 12.9046 27.034 12.8185C26.9292 12.2176 27.0622 11.6525 27.301 11.1049C27.5206 10.6011 27.8168 10.1469 28.2096 9.74869C27.6106 9.35351 27.2628 8.8071 27.1557 8.11886C26.978 6.97529 27.7421 5.78103 28.9764 5.53678C29.8332 5.3672 30.5771 5.61223 31.159 6.2547C31.7305 6.88536 31.9017 7.64863 31.6531 8.45766C31.2566 9.74869 29.9613 10.3889 28.6752 9.96668C28.5737 9.93351 28.5192 9.95445 28.4479 10.0257C28.1814 10.2917 27.9686 10.5962 27.7966 10.9277C27.5183 11.4638 27.3131 12.0191 27.3688 12.6428C27.3829 12.7991 27.4222 12.814 27.5606 12.7698C28.6378 12.4264 29.7425 12.2656 30.8733 12.3026C31.016 12.3071 31.0762 12.2668 31.1254 12.1304C31.4831 11.1365 32.4298 10.6903 33.3232 10.8705C34.7302 11.1541 35.3472 12.7538 34.5094 13.9187C33.8006 14.9045 32.2674 14.9605 31.4831 14.0322C31.1814 13.6756 31.0285 13.2629 31.0175 12.8025C31.0141 12.6531 30.9462 12.663 30.8474 12.6642C30.4799 12.6672 30.113 12.6688 29.7455 12.7031C28.2679 12.8421 26.8899 13.2857 25.6087 14.033C24.567 14.6404 23.7072 15.4692 22.8496 16.2995C22.3216 16.8113 21.7786 17.3075 21.204 17.7655C20.4474 18.3684 19.6238 18.8523 18.6557 19.0749C18.6801 19.0951 18.6927 19.1076 18.7076 19.1172C18.745 19.1408 18.7827 19.1637 18.8212 19.1854C19.702 19.68 20.669 19.8538 21.6581 19.9437C22.6182 20.031 23.5829 20.0066 24.5445 20.0492C25.1592 20.0767 25.7712 20.1224 26.3763 20.2352C27.1381 20.3773 27.8744 20.6026 28.5821 20.9196C28.6588 20.9539 28.7259 20.9844 28.7865 20.8838C28.9596 20.5965 29.2101 20.3873 29.4896 20.2082C30.1161 19.8073 30.8047 19.5969 31.5437 19.5512C31.7103 19.5409 31.7969 19.5257 31.766 19.3092C31.6825 18.7269 31.8232 18.1908 32.1545 17.6981C33.0083 16.4276 34.9758 16.3971 35.8825 17.6325C36.0956 17.9233 36.1986 18.2506 36.3313 18.5715V19.523C36.1902 19.7578 36.1403 20.0302 35.9919 20.2672C35.1271 21.6482 33.0494 21.6897 32.1442 20.3358C32.1057 20.2783 32.0508 20.2249 32.0329 20.1612C31.9711 19.9437 31.8357 19.8774 31.6162 19.8995C30.7209 19.9902 29.8942 20.2386 29.2364 20.8929C29.0157 21.1124 29.0164 21.1147 29.2883 21.2595C30.2725 21.785 31.1482 22.4518 31.9098 23.2666C31.9852 23.3474 32.0298 23.3466 32.1225 23.2989C33.0929 22.8028 34.2959 23.1965 34.7527 24.1773C35.1786 25.0915 34.8789 26.1714 33.9581 26.703C33.0902 27.2041 31.9772 26.9393 31.4079 26.0994C30.8909 25.3369 30.9679 24.3587 31.6066 23.6884C31.697 23.5935 31.6833 23.5504 31.5998 23.4647C30.1455 21.9744 28.4002 21.0137 26.3599 20.5995C25.6137 20.4482 24.8526 20.4303 24.0934 20.3888C23.0056 20.3293 21.9113 20.3674 20.8295 20.2062C19.9861 20.0805 19.1774 19.8457 18.4204 19.3717C18.515 19.784 18.6546 20.1445 18.8327 20.492C19.3691 21.5388 20.1584 22.3886 20.9622 23.2273C21.7256 24.0241 22.5072 24.8064 23.1231 25.7302C23.5391 26.3547 23.9009 27.0082 24.1465 27.7212C24.1674 27.7814 24.1911 27.8359 24.2787 27.8199C25.2084 27.6496 26.0045 27.996 26.7625 28.4738C26.9379 28.5843 27.0962 28.7223 27.2624 28.8476C27.1995 28.9627 27.1362 29.0778 27.0733 29.1933L27.0725 29.1929Z" fill="white"/>
<path d="M27.0713 29.1917C27.1342 29.0766 27.1975 28.9616 27.2605 28.8461C27.6433 28.3111 28.1405 27.9445 28.7906 27.7966C30.1263 27.4929 31.4964 28.43 31.6873 29.7808C31.9055 31.3249 30.7486 32.6179 29.1871 32.574C28.0825 32.5432 27.0797 31.6381 26.9161 30.5509C26.8448 30.0777 26.9242 29.6341 27.0713 29.1917Z" fill="#4DACE1"/>
</g>
<path d="M63.0144 27.7333C62.4741 27.5281 61.9338 27.2887 61.3935 27.0152C60.86 26.7416 60.3266 26.4338 59.7931 26.0918C58.3911 27.0356 56.8249 27.5076 55.0946 27.5076C53.9045 27.5076 52.7931 27.2853 51.7603 26.8407C50.7276 26.3893 49.8215 25.7636 49.0417 24.9633C48.2689 24.1632 47.6636 23.233 47.2259 22.1729C46.7882 21.1128 46.5693 19.9707 46.5693 18.7465C46.5693 17.5222 46.7882 16.3767 47.2259 15.3097C47.6705 14.2428 48.2826 13.3092 49.0623 12.509C49.8419 11.702 50.7482 11.0728 51.7809 10.6214C52.8137 10.17 53.9216 9.94434 55.1047 9.94434C56.2948 9.94434 57.4062 10.17 58.439 10.6214C59.4717 11.0728 60.3779 11.702 61.1575 12.509C61.9373 13.3092 62.5459 14.2428 62.9836 15.3097C63.4214 16.3698 63.6402 17.5085 63.6402 18.7259C63.6402 19.6698 63.4966 20.5725 63.2093 21.4343C62.9289 22.296 62.5151 23.0826 61.968 23.7938C62.3988 23.9922 62.8229 24.1734 63.2401 24.3376C63.6573 24.5017 64.0711 24.6454 64.4814 24.7684L63.0144 27.7333ZM55.0946 24.3068C55.4228 24.3068 55.7408 24.2658 56.0486 24.1837C56.3632 24.1016 56.6505 23.9887 56.9103 23.8451C56.4727 23.4622 56.052 23.0655 55.6485 22.6551C55.2518 22.2448 54.8859 21.8242 54.5508 21.3932L55.9665 19.6287C56.8693 20.5794 57.8541 21.4172 58.9211 22.1421C59.2904 21.6839 59.5708 21.1607 59.7623 20.5725C59.9607 19.9844 60.0599 19.3688 60.0599 18.7259C60.0599 17.9121 59.9367 17.1666 59.6905 16.4895C59.4511 15.8055 59.1092 15.214 58.6647 14.7147C58.2269 14.2155 57.7037 13.829 57.095 13.5555C56.4931 13.2819 55.8297 13.145 55.1047 13.145C54.3866 13.145 53.7233 13.2819 53.1145 13.5555C52.5127 13.829 51.9895 14.2188 51.5449 14.7249C51.1004 15.2243 50.755 15.8158 50.5087 16.4997C50.2694 17.1768 50.1497 17.9257 50.1497 18.7465C50.1497 19.5672 50.2694 20.3161 50.5087 20.9932C50.7482 21.6703 51.0867 22.2584 51.5244 22.7577C51.9689 23.2501 52.4921 23.6331 53.094 23.9067C53.7027 24.1734 54.3696 24.3068 55.0946 24.3068ZM72.2886 27.5076C70.3736 27.5076 68.9921 27.128 68.144 26.3688C67.296 25.6097 66.8719 24.3683 66.8719 22.6448V16.6742H70.0215V21.9062C70.0215 23.0142 70.1924 23.7973 70.5344 24.2555C70.8832 24.7137 71.4679 24.9429 72.2886 24.9429C73.123 24.9429 73.7078 24.7137 74.0429 24.2555C74.3849 23.7973 74.5559 23.0142 74.5559 21.9062V16.6742H77.7058V22.6448C77.7058 24.3683 77.2817 25.6097 76.4335 26.3688C75.592 27.128 74.2105 27.5076 72.2886 27.5076ZM85.5451 27.5076C84.5804 27.5076 83.7022 27.2682 82.9086 26.7895C82.1223 26.3039 81.4962 25.6404 81.0312 24.7992C80.5725 23.9512 80.3441 22.9869 80.3441 21.9062C80.3441 20.8529 80.5661 19.9091 81.0102 19.0748C81.4552 18.2335 82.0677 17.5701 82.8467 17.0845C83.6339 16.5921 84.5331 16.3458 85.5451 16.3458C86.2904 16.3458 86.9848 16.4895 87.6273 16.7767C88.2771 17.0571 88.8077 17.4504 89.2181 17.9566V16.6742H92.3669V27.1792H89.2181V25.7943C88.7394 26.3483 88.1888 26.7724 87.5663 27.0664C86.9439 27.3605 86.2704 27.5076 85.5451 27.5076ZM86.4788 24.83C87.0258 24.83 87.5117 24.7069 87.9358 24.4607C88.359 24.2076 88.6912 23.8622 88.9305 23.4245C89.1699 22.9868 89.29 22.4875 89.29 21.9267C89.29 21.359 89.1662 20.8598 88.9205 20.4289C88.6812 19.9912 88.349 19.6493 87.9249 19.403C87.5081 19.15 87.0258 19.0234 86.4788 19.0234C85.9382 19.0234 85.4559 19.15 85.0318 19.403C84.6077 19.6493 84.2728 19.9912 84.0271 20.4289C83.7805 20.8667 83.6576 21.3659 83.6576 21.9267C83.6576 22.4875 83.7768 22.9868 84.0162 23.4245C84.2628 23.8622 84.5977 24.2076 85.0218 24.4607C85.4459 24.7069 85.9319 24.83 86.4788 24.83ZM96.0718 27.1792V16.6742H99.2215V17.8437C99.6247 17.3923 100.128 17.0298 100.73 16.7562C101.338 16.4826 102.008 16.3458 102.741 16.3458C103.547 16.3458 104.255 16.5237 104.864 16.8793C105.479 17.2281 105.961 17.7171 106.31 18.3463C106.66 18.9687 106.833 19.6971 106.833 20.5315V27.1792H103.685V21.1983C103.685 20.446 103.486 19.8612 103.089 19.4441C102.699 19.0201 102.162 18.808 101.479 18.808C101.013 18.808 100.61 18.9037 100.268 19.0952C99.9332 19.2799 99.6729 19.5364 99.4882 19.8647C99.3107 20.1861 99.2215 20.5521 99.2215 20.9624V27.1792H96.0718ZM113.84 27.5076C112.793 27.5076 111.979 27.1759 111.398 26.5124C110.817 25.8422 110.525 24.9086 110.525 23.7118V19.0645H109.12V16.6742H110.525V12.7347H113.675V16.6742H115.984V19.0645H113.675V23.4861C113.675 23.8827 113.754 24.1837 113.911 24.3889C114.076 24.594 114.305 24.6966 114.599 24.6966C114.927 24.6966 115.241 24.5872 115.543 24.3683L116.333 26.892C115.977 27.0835 115.576 27.234 115.132 27.3434C114.694 27.4528 114.263 27.5076 113.84 27.5076Z" fill="white"/>
<path d="M119.054 27.1776V9.53223H122.204V27.1776H119.054ZM125.896 27.1776V16.6725H129.046V27.1776H125.896ZM127.476 14.4874C127.135 14.4874 126.82 14.4053 126.532 14.2411C126.252 14.0702 126.026 13.841 125.855 13.5538C125.684 13.2665 125.599 12.9519 125.599 12.61C125.599 12.268 125.684 11.9568 125.855 11.6763C126.026 11.396 126.252 11.1737 126.532 11.0095C126.82 10.8385 127.135 10.7531 127.476 10.7531C127.818 10.7531 128.13 10.8385 128.41 11.0095C128.69 11.1737 128.913 11.396 129.077 11.6763C129.248 11.9568 129.334 12.268 129.334 12.61C129.334 12.9519 129.248 13.2665 129.077 13.5538C128.913 13.841 128.69 14.0702 128.41 14.2411C128.13 14.4053 127.818 14.4874 127.476 14.4874ZM132.759 27.1776V16.6725H135.909V17.842C136.313 17.3906 136.815 17.0282 137.417 16.7545C138.026 16.4809 138.696 16.3442 139.428 16.3442C140.234 16.3442 140.942 16.522 141.551 16.8776C142.167 17.2265 142.649 17.7154 142.998 18.3447C143.347 18.9671 143.522 19.6955 143.522 20.5298V27.1776H140.372V21.1966C140.372 20.4444 140.173 19.8596 139.777 19.4424C139.387 19.0184 138.85 18.8063 138.166 18.8063C137.701 18.8063 137.298 18.9021 136.955 19.0936C136.621 19.2782 136.36 19.5348 136.176 19.863C135.998 20.1845 135.909 20.5504 135.909 20.9607V27.1776H132.759ZM147.026 27.1776V9.53223H150.175V20.5093L154.053 16.6725H158.136L152.996 21.8225L158.372 27.1776H154.33L150.175 23.0228V27.1776H147.026Z" fill="#4DACE1"/>
<path d="M158.475 9.88574H161.836V10.5402H160.541V13.3517H159.77V10.5402H158.475V9.88574Z" fill="white"/>
<path d="M165.547 13.3517V11.34H165.523L164.526 12.9639H164.302L163.306 11.34H163.281V13.3517H162.533V9.88574H163.281L164.451 11.7763L165.622 9.88574H166.344V13.3517H165.547Z" fill="white"/>
</g>
<defs>
<clipPath id="clip0_44792_46">
<rect width="166.282" height="36.4001" fill="white" transform="translate(0 0.800781)"/>
</clipPath>
</defs>
</svg>
